# xmcd CD database file
#
# Track frame offsets:
#	151
#	24012
#	55518
#	89724
#	115516
#	140365
#	174301
#	200503
#	236715
#	259008
#
# Disc length: 3930 seconds
#
# Revision: 1
# Processed by: cddbd v1.5.1PL2 Copyright (c) Steve Scherf et al.
# Submitted via: CDex 1.51
#
DISCID=790f580a
DTITLE=Jocelyn Menard - Men Art Works
DYEAR=2002
DGENRE=Jazz
TTITLE0=On the Road
TTITLE1=My Country
TTITLE2=Tristesse
TTITLE3=Waladli
TTITLE4=El Chico
TTITLE5=Back Home
TTITLE6=Pour Marie
TTITLE7=To be Alive
TTITLE8=Blues for Sosso
TTITLE9=Someday my Prince Will Come
EXTD=YEAR: 2002
EXTT0=
EXTT1=
EXTT2=
EXTT3=
EXTT4=
EXTT5=
EXTT6=
EXTT7=
EXTT8=
EXTT9=
PLAYORDER=
